<mxfile host="app.diagrams.net" modified="2023-10-04T13:05:15.878Z" agent="Mozilla/5.0 (X11; Linux x86_64) AppleWebKit/537.36 (KHTML, like Gecko) Chrome/117.0.0.0 Safari/537.36" version="22.0.2" etag="p44WkPc0EgCeG2Kt1LP2" type="github">
  <diagram name="Page-1" id="snISkZmkfX0Ror128f0T">
    <mxGraphModel>
      <root>
        <mxCell id="0" />
        <mxCell id="1" parent="0" />
      </root>
    </mxGraphModel>
  </diagram>
</mxfile>
